# xmcd
#
# Track frame offsets:
#	150
#	12205
#	23742
#	36200
#	49752
#	59912
#	71667
#	83472
#	96510
#	105682
#	115555
#	127330
#	137335
#	148525
#	160425
#	170612
#	179092
#	192525
#	204137
#	213895
#	225787
#	238662
#	247777
#	259597
#	270435
#	280382
#	291105
#
# Disc length: 4030 seconds
#
# Revision: 0
# Processed by: cddbd v1.4PL0 Copyright (c) Steve Scherf et al.
# Submitted via: EasyCDDAExtractor 4.6.0.1
#
DISCID=840fbc1b
DTITLE=Jim and Jesse - Bluegrass and More Vol. 4
DYEAR=1900
DGENRE=Country
TTITLE0=God Moved In
TTITLE1=I'll Wear The Banner
TTITLE2=The Weapon Of Prayer
TTITLE3=Angel Mother
TTITLE4=Sing Unto Him A New Song
TTITLE5=In God's Eyes
TTITLE6=Who Did? Jesus Did
TTITLE7=How Much Are You Worth
TTITLE8=He Walks On The Water
TTITLE9=The River Of Jordan
TTITLE10=Where The Chilly Winds Don't Blow
TTITLE11=All For The Love Of A Girl
TTITLE12=Diesel On My Tail
TTITLE13=Truck Driving Man
TTITLE14=Six Days On The Road
TTITLE15=Sam's Place
TTITLE16=Ballad Of Thunder Road
TTITLE17=Lovin' Machine
TTITLE18=Hot Rod Race
TTITLE19=Girl On The Billboard
TTITLE20=Give Me Forty Acres
TTITLE21=Tijuana Taxi
TTITLE22=Greenwich Village Folksong Salesman
TTITLE23=Pretty Girls (In Mini Skirts)
TTITLE24=Yonder Comes A Freight Train
TTITLE25=Rose City Chimes
TTITLE26=Wilwood Flower
EXTD=
EXTT0=
EXTT1=
EXTT2=
EXTT3=
EXTT4=
EXTT5=
EXTT6=
EXTT7=
EXTT8=
EXTT9=
EXTT10=
EXTT11=
EXTT12=
EXTT13=
EXTT14=
EXTT15=
EXTT16=
EXTT17=
EXTT18=
EXTT19=
EXTT20=
EXTT21=
EXTT22=
EXTT23=
EXTT24=
EXTT25=
EXTT26=
PLAYORDER=
